<svg xmlns="http://www.w3.org/2000/svg" width="180" height="180" fill="none"><g clip-path="url(#a)"><rect width="180" height="180" fill="#ACE73E" rx="45"/><g stroke="#000" stroke-width="3.4" opacity=".1"><path d="M94 201c3-13-10-19-4-30 6-10 14-10 31-15 16-4 29-28 52-22 23 7-12 27 7 59m-52 14c0-8-14-23-11-29 4-7 16-18 28-15s10 15 10 30M-16 56c0 24 27 61 62 71 36 9 50-12 70-24 20-11 47-6 63-21 15-15 2-39 24-61M-6 116c16 9 42 30 42 57s-25 32-50 39"/><path d="M10-12c0 48-12 79 9 100 18 19 51 31 72 12 22-19 56-39 68-41 21-2 10-45 29-57"/><path d="M45-39c-14 24-9 41-9 54 0 12-11 26-11 37 0 10 18 36 44 36 25 0 35-32 44-40 8-9 27-14 32-20 6-6-3-29 16-40M68-36c-12 22-2 27-2 48 0 20-12 20-12 31s10 23 21 17c11-7 17-27 23-32 5-6 22-9 22-19 0-9-11-14-11-27M43 206c5-5 13-14 13-22s-7-25 8-33c15-9 31-3 39-7 8-5 10-20 29-25 20-5 36 1 57-11"/></g><path fill="#023339" d="M138 129H42c-2 0-2-1-2-2 2-8 10-35 18-35 7 0 13 17 17 28 0 2 2 1 3 0 5-19 17-65 30-65 14 0 29 60 32 72 0 1 0 2-2 2Z"/><g filter="url(#b)" opacity=".1" style="mix-blend-mode:plus-darker"><circle cx="58.5" cy="62.1" r="27.9" fill="#192E03"/></g><path fill="#fff" d="m51 67-9-3v-3l9-3 3-4 3-8h3l3 8 3 4 8 3c2 0 2 2 0 3l-8 3-3 3-3 8c0 2-3 2-3 0l-3-8-3-3Z"/></g><defs><clipPath id="a"><rect width="180" height="180" fill="#fff" rx="45"/></clipPath><filter id="b" width="114.4" height="114.4" x="1.3" y="4.9" color-interpolation-filters="sRGB" filterUnits="userSpaceOnUse"><feFlood flood-opacity="0" result="BackgroundImageFix"/><feBlend in="SourceGraphic" in2="BackgroundImageFix" result="shape"/><feGaussianBlur result="effect1_foregroundBlur_671_3688" stdDeviation="14.6"/></filter></defs></svg>