<svg xmlns="http://www.w3.org/2000/svg" width="1920" height="498" fill="none"><g fill="#fff" clip-path="url(#a)"><path d="M-448 0h891v36h-891zm0 66h891v36h-891zm0 66h891v36h-891zm0 66h891v36h-891zm0 66h891v36h-891zm0 66h891v36h-891zm0 66h891v36h-891zm0 66h891v36h-891zM515 0h891v36H515zm0 66h891v36H515zm0 66h891v36H515zm0 66h891v36H515zm0 66h891v36H515zm0 66h891v36H515zm0 66h891v36H515zm0 66h891v36H515zM1478 0h891v36h-891zm0 66h891v36h-891zm0 66h891v36h-891zm0 66h891v36h-891zm0 66h891v36h-891zm0 66h891v36h-891zm0 66h891v36h-891zm0 66h891v36h-891z"/></g><defs><clipPath id="a"><path fill="#fff" d="M0 0h1920v498H0z"/></clipPath></defs></svg>