<svg xmlns="http://www.w3.org/2000/svg" width="246" height="238" viewBox="0 0 246 238" fill="none">
  <path d="M210.698 238H29.6982V216H210.698V238ZM245.034 114.984C232.203 122.101 218.89 128.03 205.257 132.773L215.556 161.066L194.882 168.591L184.151 139.11C167.582 143.316 150.674 145.84 133.698 146.682V183.241H111.698V146.832C93.5528 146.18 75.4633 143.611 57.7598 139.12L47.0342 168.591L26.3613 161.066L36.6543 132.785C24.1243 128.427 11.8643 123.068 0 116.705L10.3965 97.3174C80.1865 134.745 164.996 134.22 234.363 95.7461L245.034 114.984ZM210.698 22H29.6982V0H210.698V22Z" fill="#BBF451"/>
</svg>
